<?xml version="1.0" encoding="utf-8"?>
<!-- Generator: Adobe Illustrator 25.4.1, SVG Export Plug-In . SVG Version: 6.00 Build 0)  -->
<svg version="1.1" id="Layer_1" xmlns="http://www.w3.org/2000/svg" xmlns:xlink="http://www.w3.org/1999/xlink" x="0px" y="0px"
	 viewBox="0 0 65 65" style="enable-background:new 0 0 65 65;" xml:space="preserve">
<style type="text/css">
	.st0{display:none;fill:none;stroke:#000000;stroke-linecap:round;stroke-miterlimit:10;}
	.st1{fill:none;stroke:#FCEE21;stroke-width:2;stroke-linecap:round;stroke-miterlimit:10;}
	.st2{fill:none;stroke:#FFFF00;stroke-width:2;stroke-linecap:round;stroke-miterlimit:10;}
	.st3{fill:#F2F2F2;}
</style>
<g>
	<rect x="2.5" y="2.5" class="st0" width="60" height="60"/>
</g>
<g id="_x30_2d">
	<path class="st1" d="M33.1,23.3c2-2.4,5-3.8,8.3-3.8c6.1,0,11,4.9,11,11c0,2.3-0.7,4.5-2,6.3"/>
	<line class="st2" x1="41.4" y1="11.2" x2="41.4" y2="14"/>
	<line class="st2" x1="60.6" y1="30.4" x2="57.9" y2="30.4"/>
	<line class="st2" x1="55" y1="16.9" x2="53.1" y2="18.8"/>
	<path class="st3" d="M14,53.8h32.9c5.3,0,9.6-4.3,9.6-9.6s-4.3-9.6-9.6-9.6h-4.2c-0.7-7.7-7.2-13.7-15-13.7
		c-7.9,0-14.4,6.1-15,13.8c-4.7,0.6-8.3,4.7-8.3,9.5C4.4,49.5,8.7,53.8,14,53.8z M14,37.3c3.8,0,6.9,3.1,6.9,6.9
		c0,0.8,0.6,1.4,1.4,1.4s1.4-0.6,1.4-1.4c0-4.8-3.6-8.8-8.2-9.5c0.6-6.2,5.9-11.1,12.3-11.1c6.8,0,12.4,5.5,12.4,12.4
		c0,0.8,0.6,1.4,1.4,1.4h5.5c3.8,0,6.9,3.1,6.9,6.9S50.7,51,46.9,51H14c-3.8,0-6.9-3.1-6.9-6.9S10.2,37.3,14,37.3z"/>
</g>
</svg>
