<?xml version="1.0" encoding="utf-8"?>
<!-- Generator: Adobe Illustrator 25.4.1, SVG Export Plug-In . SVG Version: 6.00 Build 0)  -->
<svg version="1.1" id="Layer_1" xmlns="http://www.w3.org/2000/svg" xmlns:xlink="http://www.w3.org/1999/xlink" x="0px" y="0px"
	 viewBox="0 0 65 65" style="enable-background:new 0 0 65 65;" xml:space="preserve">
<style type="text/css">
	.st0{display:none;fill:none;stroke:#000000;stroke-linecap:round;stroke-miterlimit:10;}
	.st1{fill:#CCCCCC;}
</style>
<g>
	<rect x="2.5" y="2.5" class="st0" width="60" height="60"/>
</g>
<g id="_x30_4n">
	<path class="st1" d="M51.7,27.5h-4.3c-0.7-7.8-7.3-14-15.3-14c-5.1,0-9.7,2.5-12.5,6.4c-1.2,1.7-2.1,3.7-2.6,5.9
		c1.2-1.6,2.7-2.8,4.5-3.7c1.1-1.7,2.5-3.1,4.2-4c1.9-1.1,4-1.7,6.4-1.7c6.9,0,12.6,5.6,12.6,12.6c0,0.8,0.6,1.4,1.4,1.4h5.6
		c3.8,0,7,3.1,7,7c0,2-0.9,3.8-2.2,5.1c-0.9,0.8-2,1.4-3.2,1.7c-0.4,1.2-1.1,2.2-2.1,3h0.5c1.3,0,2.5-0.2,3.6-0.7
		c3.6-1.4,6.2-5,6.2-9.1C61.5,31.9,57.1,27.5,51.7,27.5z"/>
	<path class="st1" d="M14.7,32.1c0-0.3,0.1-0.6,0.1-0.9c-1.5,0.8-2.6,2.2-3.2,3.8c0.5-0.1,1-0.2,1.6-0.2c3.8,0,7,3.1,7,7
		c0,0.8,0.6,1.4,1.4,1.4c0.8,0,1.4-0.6,1.4-1.4C23,36.8,19.4,32.8,14.7,32.1z M46.8,31.9h-4.3c-0.7-7.8-7.3-14-15.3-14
		c-0.5,0-0.9,0-1.4,0.1c-2.2,0.2-4.3,0.9-6.1,1.9c-3.6,2-6.3,5.4-7.4,9.5c-0.2,0.8-0.4,1.7-0.4,2.6c-0.8,0.1-1.6,0.3-2.3,0.6
		c-3.6,1.4-6.1,5-6.1,9.1c0,5.4,4.4,9.8,9.8,9.8h33.5c3.7,0,7-2.1,8.6-5.2c0.7-1.2,1.1-2.6,1.1-4c0-0.2,0-0.4,0-0.6
		C56.5,36.3,52.1,31.9,46.8,31.9z M51.3,47c-1.2,1-2.8,1.7-4.5,1.7H13.3c-3.8,0-7-3.1-7-7c0-2,0.9-3.8,2.2-5.1
		c0.9-0.8,2-1.4,3.2-1.7c0.5-0.1,1-0.2,1.6-0.2c3.8,0,7,3.1,7,7c0,0.8,0.6,1.4,1.4,1.4c0.8,0,1.4-0.6,1.4-1.4c0-4.9-3.6-8.9-8.3-9.7
		c0-0.3,0.1-0.6,0.1-0.9c0.2-1.2,0.6-2.3,1.1-3.4c0.3-0.7,0.7-1.3,1.2-2c1.2-1.6,2.7-2.8,4.5-3.7c1.7-0.8,3.6-1.3,5.6-1.3
		c6.9,0,12.6,5.6,12.6,12.6c0,0.8,0.6,1.4,1.4,1.4h5.6c3.8,0,7,3.1,7,7c0,0.8-0.1,1.6-0.4,2.3C52.9,45.2,52.2,46.2,51.3,47z"/>
</g>
</svg>
