<?xml version="1.0" encoding="utf-8"?>
<!-- Generator: Adobe Illustrator 25.4.1, SVG Export Plug-In . SVG Version: 6.00 Build 0)  -->
<svg version="1.1" id="Layer_1" xmlns="http://www.w3.org/2000/svg" xmlns:xlink="http://www.w3.org/1999/xlink" x="0px" y="0px"
	 viewBox="0 0 65 65" style="enable-background:new 0 0 65 65;" xml:space="preserve">
<style type="text/css">
	.st0{display:none;fill:none;stroke:#000000;stroke-linecap:round;stroke-miterlimit:10;}
	.st1{fill:none;stroke:#359EED;stroke-width:2;stroke-linecap:round;stroke-miterlimit:10;}
	.st2{fill:none;stroke:#333333;stroke-width:2;stroke-linecap:round;stroke-miterlimit:10;}
	.st3{fill:#CCCCCC;}
</style>
<g>
	<rect x="2.5" y="2.5" class="st0" width="60" height="60"/>
</g>
<g id="_x31_0n">
	<g>
		<line class="st1" x1="25.2" y1="43.5" x2="23.8" y2="46.4"/>
		<line class="st1" x1="25.2" y1="52.3" x2="23.8" y2="55.2"/>
		<line class="st1" x1="34" y1="43.5" x2="32.5" y2="46.4"/>
		<line class="st1" x1="34" y1="52.3" x2="32.5" y2="55.2"/>
		<line class="st1" x1="42.7" y1="43.5" x2="41.2" y2="46.4"/>
		<line class="st1" x1="42.7" y1="52.3" x2="41.2" y2="55.2"/>
	</g>
	<path class="st2" d="M55,30.7c3.1-2.1,5.1-5.6,5.1-9.6c0-0.1,0-0.3,0-0.4c-0.9,0.2-1.9,0.4-2.9,0.4c-6.3,0-11.4-5-11.6-11.3
		c-3.6,0.9-6.6,3.6-7.9,7"/>
	<path class="st3" d="M49.9,45c-0.8,0-1.5,0.7-1.5,1.5s0.7,1.5,1.5,1.5c5.6,0,10.2-4.6,10.2-10.2s-4.6-10.2-10.2-10.2h-4.4
		C44.8,19.4,37.9,13,29.6,13c-8.4,0-15.2,6.5-15.9,14.6c-5,0.7-8.8,4.9-8.8,10.1c0,5.6,4.6,10.2,10.2,10.2c0.8,0,1.5-0.7,1.5-1.5
		S15.9,45,15.1,45c-4,0-7.3-3.3-7.3-7.3s3.3-7.3,7.3-7.3s7.3,3.3,7.3,7.3c0,0.8,0.7,1.5,1.5,1.5c0.8,0,1.5-0.7,1.5-1.5
		c0-5.1-3.8-9.3-8.7-10c0.7-6.6,6.2-11.8,13-11.8c7.2,0,13.1,5.9,13.1,13.1c0,0.8,0.7,1.5,1.5,1.5h5.8c4,0,7.3,3.3,7.3,7.3
		S54,45,49.9,45z"/>
</g>
</svg>
