<?xml version="1.0" encoding="utf-8"?>
<!-- Generator: Adobe Illustrator 25.4.1, SVG Export Plug-In . SVG Version: 6.00 Build 0)  -->
<svg version="1.1" id="Layer_1" xmlns="http://www.w3.org/2000/svg" xmlns:xlink="http://www.w3.org/1999/xlink" x="0px" y="0px"
	 viewBox="0 0 65 65" style="enable-background:new 0 0 65 65;" xml:space="preserve">
<style type="text/css">
	.st0{display:none;fill:none;stroke:#000000;stroke-linecap:round;stroke-miterlimit:10;}
	.st1{fill:none;stroke:#359EED;stroke-width:2;stroke-linecap:round;stroke-miterlimit:10;}
	.st2{fill:#CCCCCC;}
</style>
<g>
	<rect x="2.5" y="2.5" class="st0" width="60" height="60"/>
</g>
<g id="_x31_3d">
	<g>
		<circle class="st1" cx="32.5" cy="45.3" r="4.5"/>
		<line class="st1" x1="32.5" y1="37.8" x2="32.5" y2="40.8"/>
		<line class="st1" x1="25.3" y1="41.2" x2="27.9" y2="42.7"/>
		<line class="st1" x1="25.3" y1="49.4" x2="27.9" y2="47.9"/>
		<line class="st1" x1="32.5" y1="54.3" x2="32.5" y2="51.3"/>
		<line class="st1" x1="39.7" y1="49.4" x2="37.1" y2="47.9"/>
		<line class="st1" x1="39.7" y1="41.2" x2="37.1" y2="42.7"/>
	</g>
	<path class="st2" d="M50.6,25.7H46c-0.8-8.4-7.9-15.1-16.5-15.1c-8.7,0-15.8,6.7-16.5,15.2c-5.1,0.7-9.1,5.1-9.1,10.4
		c0,5.8,4.7,10.5,10.5,10.5c0.8,0,1.5-0.7,1.5-1.5s-0.7-1.5-1.5-1.5c-4.2,0-7.5-3.4-7.5-7.5s3.4-7.5,7.5-7.5s7.5,3.4,7.5,7.5
		c0,0.8,0.7,1.5,1.5,1.5s1.5-0.7,1.5-1.5c0-5.3-3.9-9.6-9-10.4c0.7-6.8,6.5-12.2,13.5-12.2C37,13.7,43,19.8,43,27.2
		c0,0.8,0.7,1.5,1.5,1.5h6c4.2,0,7.5,3.4,7.5,7.5s-3.4,7.5-7.5,7.5c-0.8,0-1.5,0.7-1.5,1.5s0.7,1.5,1.5,1.5
		c5.8,0,10.5-4.7,10.5-10.5S56.4,25.7,50.6,25.7z"/>
</g>
</svg>
