<?xml version="1.0" encoding="utf-8"?>
<!-- Generator: Adobe Illustrator 25.4.1, SVG Export Plug-In . SVG Version: 6.00 Build 0)  -->
<svg version="1.1" id="Layer_1" xmlns="http://www.w3.org/2000/svg" xmlns:xlink="http://www.w3.org/1999/xlink" x="0px" y="0px"
	 viewBox="0 0 65 65" style="enable-background:new 0 0 65 65;" xml:space="preserve">
<style type="text/css">
	.st0{display:none;fill:none;stroke:#000000;stroke-linecap:round;stroke-miterlimit:10;}
	.st1{fill:none;stroke:#333333;stroke-width:2;stroke-linecap:round;stroke-miterlimit:10;}
	.st2{fill:none;stroke:#359EED;stroke-width:2;stroke-linecap:round;stroke-miterlimit:10;}
	.st3{fill:#CCCCCC;}
</style>
<g>
	<rect x="2.5" y="2.5" class="st0" width="60" height="60"/>
</g>
<g id="_x35_0n">
	<path class="st1" d="M53.4,30.3c3.1-2.1,5.1-5.6,5.1-9.6c0-0.1,0-0.2,0-0.4c-0.9,0.2-1.9,0.4-2.9,0.4c-6.3,0-11.3-5-11.5-11.2
		c-3.6,0.9-6.6,3.6-7.9,7"/>
	<line class="st2" x1="45.5" y1="43.9" x2="22.4" y2="43.9"/>
	<line class="st2" x1="42.6" y1="49.6" x2="22.4" y2="49.6"/>
	<line class="st2" x1="16.6" y1="55.4" x2="7.9" y2="55.4"/>
	<line class="st2" x1="39.7" y1="55.4" x2="22.4" y2="55.4"/>
	<path class="st3" d="M49.8,28h-4.4c-0.7-8.1-7.5-14.4-15.8-14.4c-8.3,0-15.1,6.4-15.8,14.6c-4.9,0.7-8.7,4.9-8.7,10
		c0,5.6,4.5,10.1,10.1,10.1c0.8,0,1.4-0.6,1.4-1.4s-0.6-1.4-1.4-1.4c-4,0-7.2-3.2-7.2-7.2s3.2-7.2,7.2-7.2s7.2,3.2,7.2,7.2
		c0,0.8,0.6,1.4,1.4,1.4s1.4-0.6,1.4-1.4c0-5.1-3.7-9.3-8.6-10c0.7-6.6,6.2-11.7,12.9-11.7c7.2,0,13,5.8,13,13
		c0,0.8,0.6,1.4,1.4,1.4h5.8c4,0,7.2,3.2,7.2,7.2s-3.2,7.2-7.2,7.2c-0.8,0-1.4,0.6-1.4,1.4s0.6,1.4,1.4,1.4
		c5.6,0,10.1-4.5,10.1-10.1S55.4,28,49.8,28z"/>
</g>
</svg>
