<?xml version="1.0" encoding="utf-8"?>
<!-- Generator: Adobe Illustrator 25.4.1, SVG Export Plug-In . SVG Version: 6.00 Build 0)  -->
<svg version="1.1" id="Layer_1" xmlns="http://www.w3.org/2000/svg" xmlns:xlink="http://www.w3.org/1999/xlink" x="0px" y="0px"
	 viewBox="0 0 65 65" style="enable-background:new 0 0 65 65;" xml:space="preserve">
<style type="text/css">
	.st0{display:none;fill:none;stroke:#000000;stroke-linecap:round;stroke-miterlimit:10;}
	.st1{fill:none;stroke:#333333;stroke-width:2;stroke-linecap:round;stroke-miterlimit:10;}
	.st2{fill:#CCCCCC;}
</style>
<g>
	<rect x="2.5" y="2.5" class="st0" width="60" height="60"/>
</g>
<g id="_x30_2n">
	<path class="st1" d="M54.6,33.9c3.2-2.2,5.3-5.8,5.3-10c0-0.1,0-0.3,0-0.4c-1,0.2-2,0.4-3,0.4c-6.5,0-11.8-5.2-12-11.6
		c-3.8,1-6.8,3.7-8.2,7.3"/>
	<path class="st2" d="M14.5,52.7h36.1c5.8,0,10.5-4.7,10.5-10.5s-4.7-10.5-10.5-10.5H46c-0.8-8.4-7.8-15-16.5-15
		c-8.6,0-15.8,6.7-16.5,15.1c-5.1,0.7-9.1,5.1-9.1,10.4C3.9,48,8.7,52.7,14.5,52.7z M14.5,34.7c4.1,0,7.5,3.4,7.5,7.5
		c0,0.8,0.7,1.5,1.5,1.5S25,43,25,42.2c0-5.3-3.9-9.6-8.9-10.4c0.7-6.8,6.5-12.2,13.5-12.2C37,19.6,43,25.7,43,33.2
		c0,0.8,0.7,1.5,1.5,1.5h6c4.1,0,7.5,3.4,7.5,7.5s-3.4,7.5-7.5,7.5H14.5c-4.1,0-7.5-3.4-7.5-7.5S10.3,34.7,14.5,34.7z"/>
</g>
</svg>
