<?xml version="1.0" encoding="utf-8"?>
<!-- Generator: Adobe Illustrator 25.4.1, SVG Export Plug-In . SVG Version: 6.00 Build 0)  -->
<svg version="1.1" id="Layer_1" xmlns="http://www.w3.org/2000/svg" xmlns:xlink="http://www.w3.org/1999/xlink" x="0px" y="0px"
	 viewBox="0 0 65 65" style="enable-background:new 0 0 65 65;" xml:space="preserve">
<style type="text/css">
	.st0{display:none;fill:none;stroke:#000000;stroke-linecap:round;stroke-miterlimit:10;}
	.st1{fill:#CCCCCC;}
</style>
<g>
	<rect x="2.5" y="2.5" class="st0" width="60" height="60"/>
</g>
<path id="_x30_3n" class="st1" d="M50.7,29.5H46c-0.8-8.5-7.9-15.1-16.6-15.1c-8.7,0-15.9,6.7-16.6,15.2c-5.2,0.7-9.1,5.1-9.1,10.5
	c0,5.8,4.8,10.6,10.6,10.6h36.3c5.8,0,10.6-4.8,10.6-10.6S56.5,29.5,50.7,29.5z M50.7,47.6H14.3c-4.2,0-7.6-3.4-7.6-7.6
	s3.4-7.6,7.6-7.6s7.6,3.4,7.6,7.6c0,0.8,0.7,1.5,1.5,1.5c0.8,0,1.5-0.7,1.5-1.5c0-5.3-3.9-9.7-9-10.5c0.7-6.9,6.5-12.2,13.5-12.2
	c7.5,0,13.6,6.1,13.6,13.6c0,0.8,0.7,1.5,1.5,1.5h6.1c4.2,0,7.6,3.4,7.6,7.6S54.8,47.6,50.7,47.6z"/>
</svg>
