<?xml version="1.0" encoding="utf-8"?>
<!-- Generator: Adobe Illustrator 25.4.1, SVG Export Plug-In . SVG Version: 6.00 Build 0)  -->
<svg version="1.1" id="Layer_1" xmlns="http://www.w3.org/2000/svg" xmlns:xlink="http://www.w3.org/1999/xlink" x="0px" y="0px"
	 viewBox="0 0 65 65" style="enable-background:new 0 0 65 65;" xml:space="preserve">
<style type="text/css">
	.st0{display:none;fill:none;stroke:#000000;stroke-linecap:round;stroke-miterlimit:10;}
	.st1{fill:none;stroke:#359EED;stroke-width:2;stroke-linecap:round;stroke-linejoin:round;stroke-miterlimit:10;}
	.st2{fill:#CCCCCC;}
</style>
<g>
	<rect x="2.5" y="2.5" class="st0" width="60" height="60"/>
</g>
<g id="_x31_1n">
	<polyline class="st1" points="32.5,36.2 29.5,45.2 35.5,45.2 32.5,54.2 	"/>
	<path class="st2" d="M50.5,25.8h-4.6c-0.8-8.4-7.8-15-16.4-15c-8.6,0-15.7,6.7-16.4,15.1C8,26.6,4,30.9,4,36.2
		C4,42,8.7,46.7,14.5,46.7c0.8,0,1.5-0.7,1.5-1.5s-0.7-1.5-1.5-1.5c-4.1,0-7.5-3.4-7.5-7.5s3.4-7.5,7.5-7.5s7.5,3.4,7.5,7.5
		c0,0.8,0.7,1.5,1.5,1.5c0.8,0,1.5-0.7,1.5-1.5c0-5.2-3.9-9.6-8.9-10.4c0.7-6.8,6.4-12.1,13.4-12.1c7.4,0,13.5,6,13.5,13.5
		c0,0.8,0.7,1.5,1.5,1.5h6c4.1,0,7.5,3.4,7.5,7.5s-3.4,7.5-7.5,7.5c-0.8,0-1.5,0.7-1.5,1.5s0.7,1.5,1.5,1.5C56.3,46.7,61,42,61,36.2
		S56.3,25.8,50.5,25.8z"/>
</g>
</svg>
