<?xml version="1.0" encoding="utf-8"?>
<!-- Generator: Adobe Illustrator 25.4.1, SVG Export Plug-In . SVG Version: 6.00 Build 0)  -->
<svg version="1.1" id="Layer_1" xmlns="http://www.w3.org/2000/svg" xmlns:xlink="http://www.w3.org/1999/xlink" x="0px" y="0px"
	 viewBox="0 0 65 65" style="enable-background:new 0 0 65 65;" xml:space="preserve">
<style type="text/css">
	.st0{display:none;fill:none;stroke:#000000;stroke-linecap:round;stroke-miterlimit:10;}
	.st1{fill:none;stroke:#FCEE21;stroke-width:2;stroke-linecap:round;stroke-miterlimit:10;}
	.st2{fill:none;stroke:#FFFF00;stroke-width:2;stroke-linecap:round;stroke-miterlimit:10;}
	.st3{fill:none;stroke:#359EED;stroke-width:2;stroke-linecap:round;stroke-miterlimit:10;}
	.st4{fill:#F2F2F2;}
</style>
<g>
	<rect x="2.5" y="2.5" class="st0" width="60" height="60"/>
</g>
<g id="_x35_0d">
	<path class="st1" d="M33.1,20.2c2-2.3,4.9-3.7,8.1-3.7c5.9,0,10.7,4.8,10.7,10.7c0,2.3-0.7,4.4-1.9,6.1"/>
	<line class="st2" x1="41.2" y1="8.5" x2="41.2" y2="11.2"/>
	<line class="st2" x1="59.8" y1="27.2" x2="57.2" y2="27.2"/>
	<line class="st2" x1="54.4" y1="14" x2="52.5" y2="15.8"/>
	<line class="st3" x1="41.2" y1="45.8" x2="19.8" y2="45.8"/>
	<line class="st3" x1="38.5" y1="51.2" x2="19.8" y2="51.2"/>
	<line class="st3" x1="14.5" y1="56.5" x2="6.5" y2="56.5"/>
	<line class="st3" x1="35.8" y1="56.5" x2="19.8" y2="56.5"/>
	<path class="st4" d="M14.5,49.8c0.7,0,1.3-0.6,1.3-1.3c0-0.7-0.6-1.3-1.3-1.3c-3.7,0-6.7-3-6.7-6.7s3-6.7,6.7-6.7s6.7,3,6.7,6.7
		c0,0.7,0.6,1.3,1.3,1.3c0.7,0,1.3-0.6,1.3-1.3c0-4.7-3.5-8.5-7.9-9.2c0.6-6,5.7-10.8,11.9-10.8c6.6,0,12,5.4,12,12
		c0,0.7,0.6,1.3,1.3,1.3h5.3c3.7,0,6.7,3,6.7,6.7s-3,6.7-6.7,6.7c-0.7,0-1.3,0.6-1.3,1.3c0,0.7,0.6,1.3,1.3,1.3
		c5.1,0,9.3-4.2,9.3-9.3s-4.2-9.3-9.3-9.3h-4.1c-0.7-7.5-7-13.3-14.6-13.3c-7.7,0-14,5.9-14.6,13.4c-4.5,0.6-8.1,4.5-8.1,9.2
		C5.2,45.6,9.3,49.8,14.5,49.8z"/>
</g>
</svg>
